# Blender v2.63 (sub 0) OBJ File: ''
# www.blender.org
mtllib map.mtl
o Plane
v 9.584939 1.191006 10.290348
v -10.000000 0.000000 10.000000
v 9.798573 0.758304 -9.654963
v -10.000000 0.000000 -10.000000
v 7.622778 1.604151 10.391068
v 5.948575 1.191006 10.290348
v 4.409352 0.403611 10.104426
v 2.716419 0.073393 10.037392
v 0.894918 0.095836 10.048826
v -0.920406 0.078125 10.036101
v -2.772630 0.451938 9.896122
v -4.623693 0.801443 9.781619
v -6.405244 0.426211 9.883863
v -8.182229 0.004206 9.998854
v 8.055259 0.476452 -9.783209
v 6.352317 0.042613 -9.980611
v 4.545455 0.000000 -10.000000
v 2.726521 0.001847 -9.999363
v 0.909091 0.000000 -10.000000
v -0.909091 0.000000 -10.000000
v -2.727273 0.000000 -10.000000
v -4.547885 0.022694 -9.988010
v -6.371069 0.069393 -9.963339
v -8.184249 0.022694 -9.988010
v -10.002431 0.022694 -8.169828
v -10.007433 0.069393 -6.326975
v -10.002431 0.022694 -4.533464
v -10.000000 0.000000 -2.727273
v -10.000000 0.000000 -0.909091
v -9.999305 0.006305 0.908395
v -9.929605 0.638877 2.656760
v -9.867629 1.201338 4.412862
v -9.929605 0.638877 6.293123
v -9.999305 0.006305 8.181122
v 9.440960 1.604151 8.572886
v 9.584939 1.191006 6.653986
v 9.867254 0.380910 4.638315
v 10.000000 0.000000 2.727273
v 10.000000 0.000000 0.909091
v 10.000000 0.000000 -0.909091
v 10.000000 0.000000 -2.727273
v 9.965389 0.130298 -4.486168
v 9.798573 0.758304 -6.018599
v 9.692101 1.159139 -7.654396
v 7.980392 0.758304 -7.836781
v 8.055259 0.476452 -6.146845
v 8.169784 0.044320 -4.525491
v 8.181818 0.000000 -2.727273
v 8.178174 0.024642 -0.896536
v 8.170965 0.073393 0.946483
v 8.166840 0.098198 2.776697
v 7.962789 0.678587 4.734001
v 7.617850 1.637478 6.771683
v 7.435558 2.141370 8.703851
v 6.318435 0.155319 -8.114213
v 6.232603 0.328809 -6.247995
v 6.168326 0.479989 -4.379793
v 6.227879 0.376680 -2.586154
v 6.324913 0.212992 -0.805161
v 6.318836 0.302953 1.063438
v 6.311748 0.350882 2.906038
v 6.184139 0.697052 4.799380
v 5.920346 1.381901 6.751241
v 5.797522 1.651985 8.597256
v 4.419733 0.308813 -8.075275
v 4.152356 0.965578 -6.030507
v 4.006677 1.363532 -4.064665
v 4.116451 1.208372 -2.270445
v 4.356217 0.738320 -0.583726
v 4.458366 0.588910 1.209125
v 4.447581 0.661846 3.064465
v 4.446212 0.624462 4.854465
v 4.352801 0.786020 6.662888
v 4.312955 0.769672 8.416769
v 2.532019 0.479607 -8.016351
v 2.197731 1.301080 -5.914665
v 2.001537 1.864296 -3.881171
v 2.142868 1.672076 -2.089289
v 2.439766 1.103446 -0.425794
v 2.604007 0.830320 1.331812
v 2.590527 0.924707 3.198386
v 2.604779 0.828333 4.967468
v 2.640185 0.588910 6.663670
v 2.681684 0.305188 8.336698
v 0.783369 0.308813 -8.075275
v 0.515889 0.966274 -6.030152
v 0.360353 1.430892 -4.030347
v 0.458472 1.354544 -2.195975
v 0.683257 0.985797 -0.457644
v 0.772345 0.924707 1.380204
v 0.755970 1.035444 3.254803
v 0.772345 0.924707 5.016568
v 0.811217 0.661846 6.700829
v 0.857202 0.350882 8.360582
v -0.920439 0.027874 -8.172201
v -1.034813 0.308813 -6.257093
v -1.123006 0.660599 -4.284029
v -1.110870 1.067333 -2.217584
v -1.010069 0.653408 -0.579452
v -1.031585 0.828334 1.331104
v -1.045836 0.924707 3.198386
v -1.041454 0.767030 4.990142
v -0.996179 0.588910 6.663670
v -0.953892 0.302953 8.336164
v -2.729703 0.022694 -8.169828
v -2.734705 0.069393 -6.326975
v -2.758683 0.430924 -4.311048
v -2.837554 1.451455 -1.939531
v -2.812173 0.785317 -0.494549
v -2.814361 0.588910 1.209125
v -2.835680 0.596412 3.088667
v -2.884784 0.151466 5.007284
v -2.799083 0.327411 6.597042
v -2.775695 0.401752 8.215532
v -4.572632 0.253744 -8.047759
v -4.588710 0.403850 -6.150272
v -4.575616 0.301900 -4.384947
v -4.579840 0.449089 -2.483663
v -4.574758 0.217453 -0.796985
v -4.590255 0.302953 1.063438
v -4.597343 0.350882 2.906038
v -4.600068 0.242000 4.722346
v -4.573503 0.193043 6.454220
v -4.595887 0.488756 8.090947
v -6.406891 0.403849 -7.968454
v -6.429756 0.617322 -6.037489
v -6.406891 0.403849 -4.332090
v -6.371069 0.069393 -2.690611
v -6.367280 0.024642 -0.896536
v -6.374490 0.073393 0.946483
v -6.377809 0.095836 2.776098
v -6.373708 0.080486 4.582064
v -6.367280 0.024642 6.376191
v -6.382840 0.196718 8.128216
v -8.208996 0.253744 -8.047759
v -8.225073 0.403849 -6.150272
v -8.208996 0.253744 -4.411395
v -8.184249 0.022694 -2.715282
v -8.181818 0.000000 -0.909091
v -8.181818 0.000000 0.909091
v -8.149327 0.294875 2.694727
v -8.111423 0.638877 4.474941
v -8.149327 0.294875 6.331091
v -8.181818 0.000000 8.181818
vt 4.843773 -3.844883
vt 4.869472 -4.786719
vt 5.807769 -4.766012
vt 5.786119 -3.828309
vt 5.925725 4.665773
vt 5.865877 5.719056
vt 4.943137 5.593168
vt 5.040615 4.556870
vt 5.000804 3.724357
vt 5.907779 3.748132
vt 4.929462 2.827859
vt 5.849546 2.830391
vt 4.900787 1.920668
vt 5.809399 1.921785
vt 4.900904 0.951100
vt 5.800167 0.965851
vt 4.892396 -0.008424
vt 5.793364 0.017279
vt 4.827241 -0.975986
vt 5.710330 -0.965807
vt 4.776931 -1.941550
vt 5.675864 -1.943971
vt 4.790414 -2.897038
vt 5.715127 -2.886091
vt -4.863842 5.439364
vt -4.864553 4.516029
vt -3.834160 4.569593
vt -3.799678 5.495379
vt -2.925550 4.630277
vt -2.923340 5.566650
vt -2.043545 4.735559
vt -2.060883 5.674333
vt -1.103986 4.774971
vt -1.138089 5.727862
vt -0.142681 4.804688
vt -0.182838 5.762904
vt 0.829476 4.832631
vt 0.775231 5.797586
vt 1.796008 4.865466
vt 1.735067 5.832961
vt 2.879667 4.774470
vt 2.766073 5.789011
vt 4.055636 4.616478
vt 3.912085 5.651304
vt -4.925725 3.595885
vt -3.946098 3.633693
vt -2.949319 3.648577
vt -1.946682 3.656186
vt -0.997666 3.732737
vt -0.060910 3.828099
vt 0.926580 3.847548
vt 1.907552 3.876195
vt 2.939523 3.825886
vt 4.042669 3.731099
vt -4.888455 2.653552
vt -3.864183 2.635084
vt -2.741588 2.518286
vt -1.717554 2.456259
vt -0.809029 2.559767
vt 0.085199 2.760188
vt 1.036191 2.850101
vt 2.030535 2.867647
vt 2.997627 2.888639
vt 3.983204 2.838777
vt -4.848137 1.703186
vt -3.776380 1.643342
vt -2.612296 1.514627
vt -1.576568 1.448377
vt -0.706140 1.542266
vt 0.183615 1.732910
vt 1.123701 1.855001
vt 2.121320 1.863853
vt 3.071120 1.887766
vt 3.992764 1.907617
vt -4.812679 0.750820
vt -3.789495 0.723046
vt -2.676390 0.649878
vt -1.642861 0.623153
vt -0.719532 0.679573
vt 0.199901 0.805475
vt 1.169795 0.879567
vt 2.164568 0.888405
vt 3.098948 0.906986
vt 4.004485 0.929039
vt -4.772735 -0.195916
vt -3.827614 -0.174010
vt -2.830436 -0.203126
vt -1.801228 -0.215906
vt -0.716664 -0.148458
vt 0.163696 -0.093538
vt 1.163530 -0.075473
vt 2.148014 -0.063698
vt 3.097194 -0.057940
vt 3.991220 -0.033743
vt -4.738334 -1.134076
vt -3.796682 -1.104138
vt -2.853279 -1.080047
vt -1.798518 -1.066810
vt -0.538789 -0.995863
vt 0.213345 -1.024091
vt 1.108496 -1.023968
vt 2.103179 -1.024848
vt 3.132637 -1.072798
vt 3.967045 -1.002713
vt -4.698221 -2.067138
vt -3.697598 -2.053137
vt -2.721548 -2.037296
vt -1.809775 -2.007717
vt -0.822886 -1.968729
vt 0.063306 -1.984845
vt 1.038713 -1.974409
vt 2.014075 -1.968346
vt 2.978517 -1.969240
vt 3.896899 -1.947579
vt -4.656515 -2.998067
vt -3.626261 -2.988768
vt -2.644107 -2.977324
vt -1.773675 -2.951314
vt -0.913961 -2.924222
vt 0.016271 -2.920033
vt 0.981415 -2.922705
vt 1.950615 -2.923885
vt 2.912372 -2.915907
vt 3.862626 -2.899189
vt -4.646551 -3.923132
vt -3.651360 -3.907973
vt -2.685122 -3.890894
vt -1.797574 -3.876045
vt -0.921602 -3.859727
vt 0.008156 -3.860239
vt 0.951589 -3.870362
vt 1.899273 -3.866018
vt 2.856441 -3.885676
vt 3.857649 -3.851941
vt -4.632372 -4.848588
vt -3.699678 -4.829231
vt -2.760805 -4.813383
vt -1.847681 -4.799026
vt -0.928233 -4.788782
vt -0.001048 -4.793833
vt 0.928138 -4.809061
vt 1.882162 -4.807530
vt 2.829866 -4.848616
vt 3.841063 -4.800261
vn 0.000577 1.000000 0.000577
vn 0.239369 0.940960 0.239369
vn -0.268286 0.916277 0.297422
vn -0.491367 0.837024 0.240728
vn -0.236245 0.955307 0.177701
vn 0.019869 0.989703 0.141752
vn -0.019357 0.989877 0.140605
vn 0.123946 0.991036 0.049858
vn 0.124170 0.986659 -0.105289
vn -0.187436 0.969919 -0.155320
vn -0.173117 0.982728 -0.065388
vn -0.175613 0.968669 -0.175613
vn -0.207549 0.955953 0.207549
vn -0.112988 0.938722 0.325629
vn -0.024292 0.998487 0.049334
vn 0.006746 0.999955 -0.006746
vn 0.026659 0.999557 -0.013257
vn 0.046643 0.998889 -0.006739
vn 0.093514 0.968106 -0.232436
vn 0.155018 0.914010 -0.374908
vn 0.222831 0.952427 -0.207918
vn -0.279002 0.954343 -0.106715
vn -0.213513 0.976507 0.029097
vn 0.075786 0.993995 0.078937
vn 0.203562 0.978394 0.036156
vn 0.148760 0.988282 0.034201
vn 0.109959 0.993257 -0.036727
vn 0.127714 0.991624 -0.019247
vn 0.060254 0.971651 -0.228613
vn -0.067699 0.918796 -0.388885
vn -0.205294 0.955398 -0.212296
vn 0.029155 0.993587 -0.109245
vn 0.179589 0.965467 -0.188738
vn 0.322032 0.939481 -0.116923
vn 0.378261 0.924415 0.048743
vn 0.328943 0.934099 0.138762
vn 0.208213 0.978028 0.010416
vn 0.155656 0.987308 -0.031517
vn 0.061017 0.994823 -0.081263
vn -0.190524 0.953688 -0.232765
vn -0.428476 0.899753 -0.082780
vn 0.042536 0.980119 -0.193799
vn 0.109479 0.941188 -0.319654
vn 0.186273 0.958796 -0.214507
vn 0.241530 0.967350 0.076793
vn 0.222737 0.940676 0.255962
vn 0.165504 0.980679 0.104292
vn 0.131540 0.990349 -0.043665
vn 0.127535 0.991152 0.036788
vn 0.002615 0.999749 0.022256
vn -0.195330 0.976991 0.085643
vn -0.044029 0.978683 -0.200603
vn -0.119268 0.929565 -0.348831
vn -0.198027 0.945569 -0.258235
vn -0.225777 0.970307 0.086772
vn -0.131548 0.950341 0.282041
vn -0.006026 0.995650 0.092975
vn 0.054234 0.997054 -0.054234
vn 0.057957 0.996635 0.057957
vn 0.049125 0.988103 0.145737
vn 0.034870 0.984010 0.174667
vn -0.076666 0.992815 -0.091879
vn -0.245877 0.937597 -0.245877
vn -0.389247 0.897280 -0.208266
vn -0.320790 0.944491 -0.070928
vn -0.191294 0.951962 0.239113
vn -0.120294 0.992344 -0.027968
vn -0.055633 0.996900 -0.055633
vn -0.075543 0.994277 0.075543
vn -0.065303 0.989157 0.131543
vn -0.035866 0.983533 0.177135
vn -0.001437 0.999903 -0.013828
vn -0.067560 0.993757 -0.088787
vn -0.131963 0.975127 -0.178084
vn 0.020891 0.951864 -0.305809
vn 0.169214 0.932296 0.319673
vn -0.030037 0.999532 0.005744
vn -0.155049 0.987486 -0.028849
vn -0.252145 0.955650 0.152174
vn -0.233986 0.972188 0.010039
vn -0.048100 0.996722 0.065051
vn 0.066521 0.995565 -0.066521
vn 0.146969 0.987818 -0.051147
vn 0.053839 0.996216 -0.068235
vn -0.251297 0.932417 -0.259709
vn -0.445587 0.859417 0.250709
vn -0.237938 0.970846 0.029030
vn -0.147116 0.988992 -0.015851
vn -0.063582 0.987310 0.145520
vn -0.007902 0.999249 -0.037935
vn -0.004690 0.993590 -0.112950
vn 0.049185 0.988740 -0.141332
vn 0.093191 0.991277 -0.093191
vn 0.089230 0.992006 0.089230
vn -0.078594 0.995480 0.053321
vn -0.163807 0.983364 0.078501
vn -0.115003 0.992687 -0.036691
vn -0.133364 0.990878 -0.019366
vn -0.118896 0.992322 0.034078
vn -0.093892 0.995116 0.030456
vn -0.124800 0.982671 -0.137047
vn -0.049703 0.988500 -0.142819
vn -0.095072 0.990920 -0.095072
vn -0.105571 0.988792 0.105571
vn -0.058397 0.984090 0.167799
vn -0.019850 0.999627 0.018761
vn -0.026871 0.999550 -0.013363
vn 0.037857 0.995429 -0.087676
vn 0.214793 0.972352 -0.091626
vn 0.223385 0.968724 0.108039
vn 0.020594 0.999198 0.034332
vn -0.067478 0.995436 -0.067478
vn -0.151685 0.987018 -0.052788
vn -0.160515 0.985451 0.055861
vn -0.072631 0.994711 0.072631
vn -0.006266 0.999961 0.006266
vn 0.001735 0.999997 -0.001735
vn 0.096416 0.962052 -0.255264
vn 0.247144 0.936931 -0.247144
vn 0.235087 0.943116 0.235087
vn 0.091449 0.965929 0.242113
usemtl _map.png
s off
f 144/1/1 34/2/1 2/3/1
f 144/1/1 2/3/1 14/4/1
f 5/5/2 1/6/2 35/7/2
f 5/5/2 35/7/2 54/8/2
f 54/8/3 64/9/3 6/10/3
f 54/8/3 6/10/3 5/5/3
f 64/9/4 74/11/4 7/12/4
f 64/9/4 7/12/4 6/10/4
f 74/11/5 84/13/5 8/14/5
f 74/11/5 8/14/5 7/12/5
f 84/13/6 94/15/6 9/16/6
f 84/13/6 9/16/6 8/14/6
f 94/15/7 104/17/7 10/18/7
f 94/15/7 10/18/7 9/16/7
f 104/17/8 114/19/8 11/20/8
f 104/17/8 11/20/8 10/18/8
f 114/19/9 124/21/9 12/22/9
f 114/19/9 12/22/9 11/20/9
f 124/21/10 134/23/10 13/24/10
f 124/21/10 13/24/10 12/22/10
f 134/23/11 144/1/11 14/4/11
f 134/23/11 14/4/11 13/24/11
f 3/25/12 15/26/12 45/27/12
f 3/25/12 45/27/12 44/28/12
f 44/28/13 45/27/13 46/29/13
f 44/28/13 46/29/13 43/30/13
f 43/30/14 46/29/14 47/31/14
f 43/30/14 47/31/14 42/32/14
f 42/32/15 47/31/15 48/33/15
f 42/32/15 48/33/15 41/34/15
f 41/34/16 48/33/16 49/35/16
f 41/34/16 49/35/16 40/36/16
f 40/36/17 49/35/17 50/37/17
f 40/36/17 50/37/17 39/38/17
f 39/38/18 50/37/18 51/39/18
f 39/38/18 51/39/18 38/40/18
f 38/40/19 51/39/19 52/41/19
f 38/40/19 52/41/19 37/42/19
f 37/42/20 52/41/20 53/43/20
f 37/42/20 53/43/20 36/44/20
f 36/44/21 53/43/21 54/8/21
f 36/44/21 54/8/21 35/7/21
f 15/26/22 16/45/22 55/46/22
f 15/26/22 55/46/22 45/27/22
f 45/27/23 55/46/23 56/47/23
f 45/27/23 56/47/23 46/29/23
f 46/29/24 56/47/24 57/48/24
f 46/29/24 57/48/24 47/31/24
f 47/31/25 57/48/25 58/49/25
f 47/31/25 58/49/25 48/33/25
f 48/33/26 58/49/26 59/50/26
f 48/33/26 59/50/26 49/35/26
f 49/35/27 59/50/27 60/51/27
f 49/35/27 60/51/27 50/37/27
f 50/37/28 60/51/28 61/52/28
f 50/37/28 61/52/28 51/39/28
f 51/39/29 61/52/29 62/53/29
f 51/39/29 62/53/29 52/41/29
f 52/41/30 62/53/30 63/54/30
f 52/41/30 63/54/30 53/43/30
f 53/43/31 63/54/31 64/9/31
f 53/43/31 64/9/31 54/8/31
f 16/45/32 17/55/32 65/56/32
f 16/45/32 65/56/32 55/46/32
f 55/46/33 65/56/33 66/57/33
f 55/46/33 66/57/33 56/47/33
f 56/47/34 66/57/34 67/58/34
f 56/47/34 67/58/34 57/48/34
f 57/48/35 67/58/35 68/59/35
f 57/48/35 68/59/35 58/49/35
f 58/49/36 68/59/36 69/60/36
f 58/49/36 69/60/36 59/50/36
f 59/50/37 69/60/37 70/61/37
f 59/50/37 70/61/37 60/51/37
f 60/51/38 70/61/38 71/62/38
f 60/51/38 71/62/38 61/52/38
f 61/52/39 71/62/39 72/63/39
f 61/52/39 72/63/39 62/53/39
f 62/53/40 72/63/40 73/64/40
f 62/53/40 73/64/40 63/54/40
f 63/54/41 73/64/41 74/11/41
f 63/54/41 74/11/41 64/9/41
f 17/55/42 18/65/42 75/66/42
f 17/55/42 75/66/42 65/56/42
f 65/56/43 75/66/43 76/67/43
f 65/56/43 76/67/43 66/57/43
f 66/57/44 76/67/44 77/68/44
f 66/57/44 77/68/44 67/58/44
f 67/58/45 77/68/45 78/69/45
f 67/58/45 78/69/45 68/59/45
f 68/59/46 78/69/46 79/70/46
f 68/59/46 79/70/46 69/60/46
f 69/60/47 79/70/47 80/71/47
f 69/60/47 80/71/47 70/61/47
f 70/61/48 80/71/48 81/72/48
f 70/61/48 81/72/48 71/62/48
f 71/62/49 81/72/49 82/73/49
f 71/62/49 82/73/49 72/63/49
f 72/63/50 82/73/50 83/74/50
f 72/63/50 83/74/50 73/64/50
f 73/64/51 83/74/51 84/13/51
f 73/64/51 84/13/51 74/11/51
f 18/65/52 19/75/52 85/76/52
f 18/65/52 85/76/52 75/66/52
f 75/66/53 85/76/53 86/77/53
f 75/66/53 86/77/53 76/67/53
f 76/67/54 86/77/54 87/78/54
f 76/67/54 87/78/54 77/68/54
f 77/68/55 87/78/55 88/79/55
f 77/68/55 88/79/55 78/69/55
f 78/69/56 88/79/56 89/80/56
f 78/69/56 89/80/56 79/70/56
f 79/70/57 89/80/57 90/81/57
f 79/70/57 90/81/57 80/71/57
f 80/71/58 90/81/58 91/82/58
f 80/71/58 91/82/58 81/72/58
f 81/72/59 91/82/59 92/83/59
f 81/72/59 92/83/59 82/73/59
f 82/73/60 92/83/60 93/84/60
f 82/73/60 93/84/60 83/74/60
f 83/74/61 93/84/61 94/15/61
f 83/74/61 94/15/61 84/13/61
f 19/75/62 20/85/62 95/86/62
f 19/75/62 95/86/62 85/76/62
f 85/76/63 95/86/63 96/87/63
f 85/76/63 96/87/63 86/77/63
f 86/77/64 96/87/64 97/88/64
f 86/77/64 97/88/64 87/78/64
f 87/78/65 97/88/65 98/89/65
f 87/78/65 98/89/65 88/79/65
f 88/79/66 98/89/66 99/90/66
f 88/79/66 99/90/66 89/80/66
f 89/80/67 99/90/67 100/91/67
f 89/80/67 100/91/67 90/81/67
f 90/81/68 100/91/68 101/92/68
f 90/81/68 101/92/68 91/82/68
f 91/82/69 101/92/69 102/93/69
f 91/82/69 102/93/69 92/83/69
f 92/83/70 102/93/70 103/94/70
f 92/83/70 103/94/70 93/84/70
f 93/84/71 103/94/71 104/17/71
f 93/84/71 104/17/71 94/15/71
f 20/85/72 21/95/72 105/96/72
f 20/85/72 105/96/72 95/86/72
f 95/86/73 105/96/73 106/97/73
f 95/86/73 106/97/73 96/87/73
f 96/87/74 106/97/74 107/98/74
f 96/87/74 107/98/74 97/88/74
f 97/88/75 107/98/75 108/99/75
f 97/88/75 108/99/75 98/89/75
f 98/89/76 108/99/76 109/100/76
f 98/89/76 109/100/76 99/90/76
f 99/90/77 109/100/77 110/101/77
f 99/90/77 110/101/77 100/91/77
f 100/91/78 110/101/78 111/102/78
f 100/91/78 111/102/78 101/92/78
f 101/92/79 111/102/79 112/103/79
f 101/92/79 112/103/79 102/93/79
f 102/93/80 112/103/80 113/104/80
f 102/93/80 113/104/80 103/94/80
f 103/94/81 113/104/81 114/19/81
f 103/94/81 114/19/81 104/17/81
f 21/95/82 22/105/82 115/106/82
f 21/95/82 115/106/82 105/96/82
f 105/96/83 115/106/83 116/107/83
f 105/96/83 116/107/83 106/97/83
f 106/97/84 116/107/84 117/108/84
f 106/97/84 117/108/84 107/98/84
f 107/98/85 117/108/85 118/109/85
f 107/98/85 118/109/85 108/99/85
f 108/99/86 118/109/86 119/110/86
f 108/99/86 119/110/86 109/100/86
f 109/100/87 119/110/87 120/111/87
f 109/100/87 120/111/87 110/101/87
f 110/101/88 120/111/88 121/112/88
f 110/101/88 121/112/88 111/102/88
f 111/102/89 121/112/89 122/113/89
f 111/102/89 122/113/89 112/103/89
f 112/103/90 122/113/90 123/114/90
f 112/103/90 123/114/90 113/104/90
f 113/104/91 123/114/91 124/21/91
f 113/104/91 124/21/91 114/19/91
f 22/105/92 23/115/92 125/116/92
f 22/105/92 125/116/92 115/106/92
f 115/106/93 125/116/93 126/117/93
f 115/106/93 126/117/93 116/107/93
f 116/107/94 126/117/94 127/118/94
f 116/107/94 127/118/94 117/108/94
f 117/108/95 127/118/95 128/119/95
f 117/108/95 128/119/95 118/109/95
f 118/109/96 128/119/96 129/120/96
f 118/109/96 129/120/96 119/110/96
f 119/110/97 129/120/97 130/121/97
f 119/110/97 130/121/97 120/111/97
f 120/111/98 130/121/98 131/122/98
f 120/111/98 131/122/98 121/112/98
f 121/112/99 131/122/99 132/123/99
f 121/112/99 132/123/99 122/113/99
f 122/113/100 132/123/100 133/124/100
f 122/113/100 133/124/100 123/114/100
f 123/114/101 133/124/101 134/23/101
f 123/114/101 134/23/101 124/21/101
f 23/115/102 24/125/102 135/126/102
f 23/115/102 135/126/102 125/116/102
f 125/116/103 135/126/103 136/127/103
f 125/116/103 136/127/103 126/117/103
f 126/117/104 136/127/104 137/128/104
f 126/117/104 137/128/104 127/118/104
f 127/118/105 137/128/105 138/129/105
f 127/118/105 138/129/105 128/119/105
f 128/119/106 138/129/106 139/130/106
f 128/119/106 139/130/106 129/120/106
f 129/120/107 139/130/107 140/131/107
f 129/120/107 140/131/107 130/121/107
f 130/121/108 140/131/108 141/132/108
f 130/121/108 141/132/108 131/122/108
f 131/122/109 141/132/109 142/133/109
f 131/122/109 142/133/109 132/123/109
f 132/123/110 142/133/110 143/134/110
f 132/123/110 143/134/110 133/124/110
f 133/124/111 143/134/111 144/1/111
f 133/124/111 144/1/111 134/23/111
f 24/125/112 4/135/112 25/136/112
f 24/125/112 25/136/112 135/126/112
f 135/126/113 25/136/113 26/137/113
f 135/126/113 26/137/113 136/127/113
f 136/127/114 26/137/114 27/138/114
f 136/127/114 27/138/114 137/128/114
f 137/128/115 27/138/115 28/139/115
f 137/128/115 28/139/115 138/129/115
f 138/129/116 28/139/116 29/140/116
f 138/129/116 29/140/116 139/130/116
f 139/130/117 29/140/117 30/141/117
f 139/130/117 30/141/117 140/131/117
f 140/131/118 30/141/118 31/142/118
f 140/131/118 31/142/118 141/132/118
f 141/132/119 31/142/119 32/143/119
f 141/132/119 32/143/119 142/133/119
f 142/133/120 32/143/120 33/144/120
f 142/133/120 33/144/120 143/134/120
f 143/134/121 33/144/121 34/2/121
f 143/134/121 34/2/121 144/1/121
